<svg width="54" height="32" viewBox="0 0 54 32" fill="none" xmlns="http://www.w3.org/2000/svg">
<g clip-path="url(#clip0_26_5)">
<path d="M52.86 14.95L44.52 6.54C44.2389 6.25754 43.857 6.09834 43.4585 6.0974C43.06 6.09646 42.6775 6.25387 42.395 6.535C42.1125 6.81613 41.9533 7.19795 41.9524 7.59646C41.9515 7.99498 42.1089 8.37754 42.39 8.66L48.39 14.66H34.16C33.9159 14.6585 33.6751 14.7169 33.4589 14.8303C33.2427 14.9436 33.0576 15.1084 32.92 15.31L29.77 19.89L22.09 0.89C21.9686 0.595303 21.7566 0.346917 21.4846 0.180856C21.2125 0.0147952 20.8947 -0.0603083 20.5771 -0.0335647C20.2595 -0.00682116 19.9587 0.120379 19.7183 0.329593C19.4779 0.538807 19.3104 0.819159 19.24 1.13L13.94 25.06L10.29 15.57C10.1874 15.2798 9.99807 15.0282 9.74762 14.8493C9.49717 14.6704 9.19776 14.5729 8.89 14.57H1.52C1.12218 14.57 0.740645 14.728 0.45934 15.0093C0.178036 15.2906 0.0200005 15.6722 0.0200005 16.07C0.0200005 16.4678 0.178036 16.8494 0.45934 17.1307C0.740645 17.412 1.12218 17.57 1.52 17.57H7.88L12.92 30.84C13.025 31.1286 13.215 31.3786 13.4649 31.5571C13.7148 31.7356 14.0129 31.8343 14.32 31.84H14.44C14.7607 31.8155 15.0651 31.6886 15.3082 31.4779C15.5512 31.2672 15.7202 30.984 15.79 30.67L21.12 6.54L28.03 23.6C28.1325 23.8512 28.3009 24.0702 28.5173 24.2338C28.7338 24.3975 28.9903 24.4998 29.26 24.53C29.5294 24.5598 29.8018 24.516 30.0484 24.4033C30.2949 24.2906 30.5062 24.1132 30.66 23.89L34.95 17.66H48.04L42.36 23.33C42.0815 23.6125 41.9254 23.9933 41.9254 24.39C41.9254 24.7867 42.0815 25.1675 42.36 25.45C42.643 25.7315 43.0259 25.8895 43.425 25.8895C43.8241 25.8895 44.207 25.7315 44.49 25.45L52.86 17.07C53.1414 16.789 53.2996 16.4077 53.3 16.01C53.2975 15.6127 53.1396 15.2323 52.86 14.95V14.95Z" fill="white"/>
</g>
<defs>
<clipPath id="clip0_26_5">
<rect width="53.29" height="31.8" fill="white"/>
</clipPath>
</defs>
</svg>
