<svg width="35" height="42" viewBox="0 0 35 42" fill="none" xmlns="http://www.w3.org/2000/svg">
<g clip-path="url(#clip0_6_41)">
<path d="M17.5 0C12.8606 0.00617975 8.41298 1.85966 5.13243 5.15401C1.85187 8.44835 0.00615387 12.9147 0 17.5736C0 29.8639 16.2812 41.3507 16.9697 41.8318C17.1254 41.9403 17.3105 41.9985 17.5 41.9985C17.6895 41.9985 17.8746 41.9403 18.0303 41.8318C18.7234 41.3647 35 29.8639 35 17.5736C34.9938 12.9147 33.1481 8.44835 29.8676 5.15401C26.587 1.85966 22.1394 0.00617975 17.5 0V0ZM17.5 39.9119C14.7089 37.8285 1.86071 27.715 1.86071 17.5736C1.86071 13.4083 3.50842 9.4137 6.44135 6.46843C9.37429 3.52317 13.3522 1.86854 17.5 1.86854C21.6478 1.86854 25.6257 3.52317 28.5586 6.46843C31.4916 9.4137 33.1393 13.4083 33.1393 17.5736C33.1393 27.715 20.2911 37.8285 17.5 39.9119Z" fill="white"/>
<path d="M17.5 6.99765C15.4159 6.99765 13.3787 7.61831 11.6459 8.78112C9.91309 9.94394 8.56263 11.5967 7.7653 13.5303C6.96797 15.4639 6.75959 17.5916 7.16651 19.6441C7.57343 21.6967 8.57738 23.5819 10.0514 25.0615C11.5254 26.541 13.4032 27.5484 15.4473 27.9561C17.4915 28.3638 19.6101 28.1536 21.5353 27.3521C23.4605 26.5505 25.1057 25.1937 26.2629 23.4531C27.42 21.7125 28.0372 19.6664 28.0363 17.5736C28.0326 14.769 26.9212 12.0804 24.9459 10.0977C22.9706 8.11501 20.2928 7.00012 17.5 6.99765V6.99765ZM17.5 8.39905C19.8009 8.40163 22.0162 9.27552 23.7037 10.8463C25.3912 12.417 26.4267 14.5691 26.6035 16.8729H22.4542C22.3324 16.8736 22.2129 16.9063 22.1076 16.9678C22.0024 17.0292 21.915 17.1173 21.8541 17.2232L21.1516 18.4284L18.7885 10.4311C18.7413 10.2925 18.6514 10.1726 18.5318 10.0886C18.4122 10.0046 18.2692 9.96099 18.1233 9.96395V9.96395C17.9701 9.96688 17.8221 10.0207 17.7026 10.1171C17.5831 10.2134 17.4988 10.3469 17.4628 10.4965L15.1741 19.7411L13.6297 13.5469C13.5947 13.4014 13.5142 13.2711 13.4 13.1749C13.2859 13.0788 13.1441 13.0218 12.9954 13.0124C12.8467 13.003 12.6989 13.0417 12.5736 13.1227C12.4484 13.2038 12.3523 13.3229 12.2993 13.4628L10.9875 16.8729H8.39647C8.57328 14.5691 9.60878 12.417 11.2963 10.8463C12.9838 9.27552 15.1991 8.40163 17.5 8.39905V8.39905ZM17.5 26.7527C15.1983 26.7501 12.9824 25.8755 11.2948 24.3038C9.60718 22.7321 8.57217 20.5789 8.39647 18.2743H11.4527C11.5931 18.2747 11.7304 18.2325 11.8466 18.1534C11.9628 18.0742 12.0525 17.9617 12.1039 17.8305L12.8017 16.0367L14.4763 22.8335C14.5171 22.9868 14.6081 23.1218 14.7348 23.2168C14.8614 23.3117 15.0162 23.361 15.1741 23.3567V23.3567C15.3298 23.3569 15.4809 23.3044 15.6033 23.2078C15.7256 23.1112 15.8121 22.9761 15.8486 22.8241L18.2024 13.304L20.2911 20.3764C20.331 20.5068 20.4078 20.6228 20.512 20.7103C20.6163 20.7978 20.7436 20.8531 20.8785 20.8694C21.0134 20.8857 21.1501 20.8624 21.2721 20.8022C21.394 20.7421 21.496 20.6477 21.5657 20.5305L22.8728 18.2743H26.6221C26.4462 20.5821 25.4086 22.738 23.717 24.3102C22.0255 25.8823 19.8049 26.7548 17.5 26.7527V26.7527Z" fill="white"/>
</g>
<defs>
<clipPath id="clip0_6_41">
<rect width="35" height="42" fill="white"/>
</clipPath>
</defs>
</svg>
