<svg width="81" height="29" viewBox="0 0 81 29" fill="none" xmlns="http://www.w3.org/2000/svg">
<path d="M37.7171 0.329052V14.5267C37.7171 17.5233 35.9714 20.6852 30.7049 20.6852C25.9537 20.6852 23.6634 18.3 23.6634 14.5267V0.329052H27.9855V14.2545C27.9855 16.7249 29.0729 17.6953 30.6481 17.6953C32.5437 17.6953 33.395 16.4743 33.395 14.2545V0.329052H37.7171ZM44.7465 20.6919C39.3939 20.6919 38.3926 17.6402 38.6219 14.1776H42.9439C42.9439 16.0918 43.0301 17.7003 45.4048 17.7003C46.8645 17.7003 47.5797 16.785 47.5797 15.4254C47.5797 11.8191 38.8786 11.597 38.8786 5.6323C38.8786 2.49712 40.4296 0.00167019 45.6909 0.00167019C49.8993 0.00167019 51.9879 1.83902 51.7018 6.0148H47.4849C47.4849 4.51152 47.2281 2.98986 45.4807 2.98986C44.0796 2.98986 43.249 3.73983 43.249 5.12619C43.249 8.92783 51.95 8.59377 51.95 14.8909C51.95 20.0788 48.0294 20.6902 44.7379 20.6902M73.7931 20.6902C68.4404 20.6902 67.4392 17.6385 67.6684 14.176H71.9905C71.9905 16.0918 72.0767 17.7003 74.4531 17.7003C75.9128 17.7003 76.6279 16.7833 76.6279 15.4254C76.6279 11.8191 67.9269 11.597 67.9269 5.6323C67.9269 2.49712 69.4779 0 74.7392 0C78.9458 0 81.0345 1.83735 80.7484 6.02148H76.5418C76.5418 4.5182 76.285 2.99654 74.5393 2.99654C73.1348 2.99654 72.299 3.74652 72.299 5.13288C72.299 8.93284 81 8.60045 81 14.8975C81 20.0855 77.0794 20.6969 73.7879 20.6969M60.0272 12.8965H62.5708V17.3161L62.3589 17.3913C61.6695 17.6326 60.9443 17.7641 60.2116 17.7805C57.7507 17.7805 57.12 16.6697 57.12 10.401C57.12 6.51757 57.12 2.9932 59.8118 2.9932C61.9039 2.9932 62.3468 4.36286 62.3847 6.01814H66.693C66.7275 2.13132 64.1442 0.0050109 60.072 0.0050109C53.0064 0.0050109 52.7445 5.13622 52.7445 10.1939C52.7445 17.7955 53.5958 20.7453 60.8647 20.7453C62.5501 20.7453 65.2351 20.3762 66.4741 20.0471C66.55 20.0271 66.6844 19.9469 66.6844 19.8433V9.8749H60.0255V12.8965" fill="white"/>
<path d="M5.61856 7.03705L5.68922 7.10386C7.71584 8.74745 9.90101 8.5871 11.5657 7.51476L20.0445 2.04949V0.322388H0.0539659V4.88402C1.27235 4.68024 3.23694 4.88402 5.62201 7.03705M13.1409 14.6203L10.7782 12.4288C10.4456 12.1365 10.163 11.9277 10.1009 11.876C8.1708 10.5614 6.37165 10.9606 5.59444 11.2396C5.37875 11.3262 5.17118 11.4307 4.97404 11.5519L0.0453491 14.7472V20.5382H20.0359V16.3624C19.605 16.6414 16.896 18.0611 13.1391 14.6203M5.44106 7.55485C5.33422 7.45797 5.21531 7.35441 5.11019 7.2709C2.74924 5.50036 0.519262 6.36726 0.0487958 6.58273V8.57541L1.20514 7.82043C1.20514 7.82043 2.98878 6.5393 5.76332 7.85384L5.44106 7.55485ZM8.19837 10.1288C8.09497 10.0386 7.98985 9.94674 7.88473 9.84986C5.79262 8.13278 3.76772 8.56873 2.92846 8.87106C2.71102 8.95812 2.50173 9.06319 2.3029 9.18508L0.0487958 10.6483V12.7011L3.81942 10.2374C3.81942 10.2374 5.58237 8.96961 8.32935 10.2374L8.20182 10.1205M20.0462 12.2818L18.1419 13.5246C17.4302 13.9872 15.7844 15.1314 13.0443 13.8586L13.3666 14.1576C13.4872 14.2628 13.6337 14.3864 13.794 14.505C15.762 15.9298 17.8645 15.7244 19.4413 14.7121C19.6602 14.5735 19.8584 14.4432 20.0462 14.323V12.2818ZM20.0462 8.1712L15.5501 11.0959C14.84 11.5586 13.1684 12.7178 10.4869 11.4751L10.7989 11.764L10.904 11.8593C12.9858 13.5663 15.2778 13.3057 16.8494 12.2885C17.7369 11.7139 18.9967 10.8888 20.0462 10.199V8.16786M20.0462 4.07725L12.9806 8.67062C12.2637 9.13664 10.5679 10.3125 7.92437 9.0882L8.24835 9.38718C8.47112 9.59003 8.70964 9.77598 8.9618 9.9434C10.7937 11.0725 12.7117 10.8721 14.28 9.86155C15.4018 9.13497 18.1609 7.35608 20.0514 6.14009V4.07725" fill="white"/>
<path d="M1.06727 26.5012C1.02144 26.6385 1.00674 26.7838 1.02419 26.9271C1.05693 27.0407 1.15344 27.0942 1.35506 27.0942C1.46299 27.0951 1.56779 27.0591 1.65102 26.9925C1.73424 26.9259 1.79055 26.8329 1.81002 26.73C1.98235 25.9817 0.147018 26.1488 0.395176 25.023C0.567507 24.2596 1.39298 24.0208 2.04956 24.0208C2.73889 24.0208 3.30069 24.3432 3.07494 25.1065H2.07886C2.13228 24.8609 2.13573 24.714 2.07886 24.6522C2.04752 24.6216 2.0092 24.5985 1.967 24.5849C1.9248 24.5713 1.87989 24.5674 1.83587 24.5737C1.72868 24.5744 1.62554 24.6135 1.54632 24.6835C1.4671 24.7535 1.4174 24.8494 1.40676 24.9528C1.28268 25.5124 3.08183 25.4856 2.83195 26.6231C2.69753 27.2395 2.07541 27.7022 1.23099 27.7022C0.341753 27.7022 -0.202816 27.4833 0.0711914 26.4979H1.06899M5.42554 25.3537C5.54101 24.8292 5.44278 24.6538 5.12396 24.6538C4.69141 24.6538 4.57423 25.0246 4.41223 25.7596C4.17614 26.8369 4.21922 27.0691 4.5949 27.0691C4.912 27.0691 5.12569 26.7885 5.22736 26.3275H6.24584C6.0356 27.2862 5.41004 27.6988 4.45532 27.6988C3.14215 27.6988 3.1387 26.9221 3.38169 25.8164C3.59366 24.8509 3.91936 24.0241 5.26183 24.0241C6.20104 24.0241 6.64048 24.43 6.44403 25.3604H5.42382M8.59301 22.7363L8.42067 23.5147H7.40391L7.57625 22.7363H8.59301ZM7.51938 27.632H6.5009L7.27639 24.0976H8.29487L7.51938 27.632V27.632ZM56.2497 22.7363L56.0773 23.5147H55.0589L55.2312 22.7363H56.2497ZM55.176 27.632H54.1576L54.9331 24.0976H55.9515L55.176 27.632V27.632ZM10.5421 25.4606C10.6162 25.1265 10.7385 24.6254 10.2543 24.6254C9.77003 24.6254 9.67525 25.1566 9.60976 25.4606H10.5421ZM9.48913 26.0135C9.39607 26.4344 9.27199 27.0641 9.72006 27.0641C10.082 27.0641 10.2284 26.73 10.2922 26.4344H11.3262C11.2438 26.7968 11.0351 27.1207 10.7351 27.3514C10.4007 27.5844 9.99539 27.7021 9.58391 27.6855C8.26902 27.6855 8.2673 26.9088 8.50856 25.803C8.72053 24.8359 9.04624 24.0108 10.3904 24.0108C11.7691 24.0108 11.726 24.871 11.4399 26.0051L9.48913 26.0135ZM13.3597 24.4467H13.3735C13.4856 24.307 13.6306 24.1954 13.7965 24.1212C13.9623 24.0471 14.1441 24.0127 14.3265 24.0208C14.8107 24.0208 15.1761 24.2997 15.0675 24.7891L14.4471 27.6287H13.4183L13.9525 25.1933C14.0215 24.8777 14.018 24.6321 13.6923 24.6321C13.3666 24.6321 13.2546 24.8777 13.1857 25.1933L12.6531 27.6287H11.6398L12.4153 24.0943H13.4321L13.3545 24.4517M17.3974 25.3537C17.5129 24.8292 17.4147 24.6538 17.0959 24.6538C16.6633 24.6538 16.5461 25.0246 16.3841 25.7596C16.148 26.8369 16.1911 27.0674 16.5668 27.0674C16.8839 27.0674 17.0976 26.7885 17.1993 26.3275H18.2177C18.0075 27.2862 17.3819 27.6988 16.4289 27.6988C15.114 27.6988 15.1106 26.9221 15.3536 25.8164C15.5656 24.8493 15.8913 24.0241 17.2337 24.0241C18.1729 24.0241 18.6124 24.43 18.4159 25.3604H17.3974M20.7769 25.4723C20.8527 25.1299 20.9751 24.6371 20.4908 24.6371C20.0065 24.6371 19.9118 25.1683 19.8463 25.4723H20.7769ZM19.7239 26.0252C19.6309 26.4461 19.5068 27.0758 19.9548 27.0758C20.3167 27.0758 20.4615 26.7417 20.527 26.4444H21.561C21.4796 26.8072 21.2706 27.1314 20.9699 27.3614C20.6372 27.5987 20.2315 27.72 19.8187 27.7055C18.5038 27.7055 18.5004 26.9271 18.7434 25.8231C18.9553 24.8559 19.281 24.0308 20.6252 24.0308C22.0039 24.0308 21.9591 24.891 21.6747 26.0252H19.7239ZM25.9486 23.3694C25.5436 23.341 25.4229 23.4963 25.3437 23.8538L25.2713 24.101H25.7487L25.616 24.709H25.1369L24.4941 27.6353H23.4773L24.1184 24.709H23.6634L23.7961 24.101H24.2597C24.4631 23.2174 24.6474 22.7263 25.7262 22.7263C25.8486 22.7263 25.9641 22.7263 26.0847 22.7397L25.9486 23.3694M27.596 25.7663C27.758 25.0313 27.8028 24.6605 27.3686 24.6605C26.9343 24.6605 26.8188 25.0313 26.6568 25.7663C26.4207 26.8436 26.4638 27.0758 26.8395 27.0758C27.2152 27.0758 27.3565 26.8453 27.596 25.7663ZM25.6263 25.8231C25.8383 24.8559 26.164 24.0308 27.5064 24.0308C28.8489 24.0308 28.8144 24.8559 28.6025 25.8231C28.3595 26.9271 28.0165 27.7055 26.7068 27.7055C25.3971 27.7055 25.3885 26.9288 25.6315 25.8231H25.6263ZM30.4275 24.101L30.3275 24.5553H30.343C30.4551 24.3836 30.6129 24.2443 30.7996 24.152C30.9864 24.0598 31.1954 24.0179 31.4046 24.0308L31.2116 24.9127C30.3275 24.8559 30.2017 25.3604 30.1259 25.7095L29.7037 27.6353H28.6869L29.4624 24.0993H30.4309M33.5036 26.5346C33.4484 26.7868 33.4226 27.0958 33.7552 27.0958C34.3549 27.0958 34.4342 26.3125 34.5169 25.9266C33.9999 25.9483 33.6415 25.9066 33.5036 26.5363M35.2855 26.9806C35.2372 27.1977 35.2183 27.4215 35.1924 27.6387H34.2463L34.3049 27.1693H34.2911C34.1715 27.3373 34.0113 27.4742 33.8244 27.5683C33.6376 27.6623 33.4298 27.7106 33.2192 27.7088C32.511 27.7088 32.3576 27.1977 32.4989 26.5814C32.7539 25.4122 33.6966 25.3637 34.641 25.3787L34.6996 25.1048C34.7668 24.8042 34.7702 24.587 34.4014 24.587C34.0326 24.587 33.962 24.8459 33.9017 25.1265H32.9039C32.9297 24.9523 32.9935 24.7853 33.0909 24.6367C33.1884 24.4881 33.3173 24.3613 33.4691 24.2646C33.7742 24.0958 34.123 24.0157 34.4738 24.0341C35.7663 24.0341 35.8128 24.5737 35.6801 25.2167L35.2855 26.9806ZM39.3163 25.3637C39.4318 24.8392 39.3336 24.6639 39.0165 24.6639C38.5822 24.6639 38.465 25.0347 38.303 25.7696C38.0669 26.847 38.11 27.0791 38.4857 27.0791C38.8028 27.0791 39.0165 26.7985 39.1182 26.3375H40.1297C39.9195 27.2963 39.2939 27.7088 38.3409 27.7088C37.0261 27.7088 37.0226 26.9321 37.2656 25.8264C37.4776 24.8593 37.8033 24.0341 39.1475 24.0341C40.0849 24.0341 40.5261 24.44 40.3279 25.3704H39.3095M44.9016 26.5396C44.8465 26.7918 44.8223 27.1008 45.1549 27.1008C45.7547 27.1008 45.8339 26.3158 45.9167 25.9316C45.3997 25.9533 45.0395 25.9116 44.9016 26.5413M46.6904 26.9806C46.6422 27.1977 46.6215 27.4215 46.5956 27.6387H45.6444L45.7047 27.1693H45.6909C45.571 27.3374 45.4105 27.4744 45.2233 27.5685C45.0361 27.6625 44.8281 27.7107 44.6173 27.7088C43.9107 27.7088 43.7556 27.1977 43.8969 26.5814C44.1537 25.4122 45.1032 25.3637 46.039 25.3771L46.0993 25.1048C46.1648 24.8025 46.17 24.5853 45.8012 24.5853C45.4324 24.5853 45.3617 24.8442 45.2997 25.1249H44.3036C44.3294 24.9508 44.3931 24.784 44.4906 24.6357C44.5881 24.4874 44.717 24.3609 44.8689 24.2646C45.1733 24.0956 45.5215 24.015 45.8718 24.0325C47.1643 24.0325 47.2126 24.572 47.0782 25.2167L46.6904 26.9806ZM48.9307 24.4617H48.9445C49.0563 24.3216 49.2013 24.2096 49.3671 24.1352C49.533 24.0607 49.7149 24.0261 49.8975 24.0341C50.3818 24.0341 50.7471 24.3148 50.6385 24.8042L50.0164 27.6437H48.9979L49.5339 25.2084C49.6011 24.8927 49.5977 24.6488 49.2737 24.6488C48.9497 24.6488 48.836 24.8944 48.767 25.2084L48.2293 27.6353H47.2109L47.9864 24.101H49.0048L48.9187 24.4584M52.1361 26.9806C52.5049 26.9806 52.6376 26.6098 52.8013 25.8615C52.9736 25.0831 53.0322 24.6438 52.6566 24.6438C52.2809 24.6438 52.1516 24.901 51.9155 25.9801C51.8432 26.3141 51.6467 26.9822 52.1378 26.9822M54.2058 24.106L53.3976 27.7807C53.3442 28.0262 53.146 28.9916 51.7449 28.9916C50.9867 28.9916 50.3766 28.8046 50.5386 27.9427H51.5347C51.4936 28.0585 51.4936 28.1843 51.5347 28.3001C51.5665 28.35 51.6126 28.3898 51.6674 28.4147C51.7222 28.4396 51.7832 28.4486 51.8431 28.4404C52.0965 28.4404 52.2705 28.2083 52.3481 27.8525L52.498 27.1727H52.4825C52.3821 27.3019 52.2519 27.4065 52.1022 27.4782C51.9526 27.5498 51.7877 27.5865 51.6208 27.5852C50.5007 27.5852 50.7695 26.5914 50.9436 25.793C51.1176 24.9946 51.3451 24.0291 52.4067 24.0291C52.7686 24.0291 53.046 24.1828 53.1184 24.5119H53.1322L53.2235 24.0993H54.192L54.2058 24.106ZM57.6145 24.4634H57.6301C57.7414 24.3232 57.886 24.2111 58.0516 24.1366C58.2172 24.0622 58.399 24.0276 58.5813 24.0358C59.0656 24.0358 59.4309 24.3164 59.3224 24.8058L58.702 27.6454H57.6835L58.2177 25.2084C58.2866 24.8944 58.2832 24.6488 57.9575 24.6488C57.6318 24.6488 57.5215 24.8944 57.4526 25.2084L56.9183 27.6454H55.8998L56.6753 24.1093H57.6938L57.6145 24.4668M60.8268 26.9806C61.1939 26.9806 61.3266 26.6098 61.4903 25.8615C61.6626 25.0848 61.7212 24.6438 61.3455 24.6438C60.9698 24.6438 60.8406 24.9027 60.6045 25.9801C60.5338 26.3141 60.3357 26.9822 60.8268 26.9822M62.8948 24.106L62.0883 27.789C62.0331 28.0329 61.8367 29 60.4339 29C59.6756 29 59.0673 28.8112 59.2362 27.9494H60.2323C60.1922 28.0653 60.1922 28.1908 60.2323 28.3068C60.2644 28.3568 60.3108 28.3967 60.3659 28.4216C60.4209 28.4465 60.4823 28.4554 60.5425 28.4471C60.7958 28.4471 60.9681 28.2149 61.0457 27.8592L61.1956 27.181H61.1818C61.0812 27.31 60.951 27.4145 60.8014 27.4861C60.6518 27.5578 60.487 27.5946 60.3202 27.5936C59.2 27.5936 59.4688 26.5997 59.6429 25.8013C59.8169 25.0029 60.0444 24.0358 61.1077 24.0358C61.4679 24.0358 61.7436 24.1895 61.816 24.5202H61.8436L61.9332 24.106H62.8948ZM64.4854 24.106H65.497L65.4143 26.7668H65.4281L66.6344 24.106H67.7166L67.7304 26.7668H67.7442L68.854 24.106H69.8312L68.0992 27.642H67.0325L66.9274 25.3036H66.9136L65.6935 27.642H64.6095L64.4751 24.1076M71.5907 25.778C71.7527 25.043 71.7975 24.6722 71.3649 24.6722C70.9324 24.6722 70.8134 25.043 70.6532 25.778C70.4154 26.8553 70.4602 27.0875 70.8358 27.0875C71.2115 27.0875 71.3528 26.857 71.5907 25.778ZM69.6209 25.8347C69.8312 24.8676 70.1569 24.0425 71.5011 24.0425C72.8452 24.0425 72.8073 24.8676 72.5954 25.8347C72.3524 26.9388 72.0094 27.7172 70.6997 27.7172C69.39 27.7172 69.3814 26.9405 69.6244 25.8347H69.6209ZM74.4789 24.1126L74.3773 24.567H74.3928C74.505 24.3954 74.6628 24.2562 74.8495 24.164C75.0363 24.0717 75.2452 24.0298 75.4543 24.0425L75.2613 24.9228C74.3773 24.8676 74.2532 25.3721 74.1756 25.7212L73.7534 27.647H72.7367L73.5104 24.111H74.4772M43.0594 24.0308C42.8768 24.0227 42.6949 24.0574 42.529 24.1318C42.3632 24.2062 42.2182 24.3183 42.1064 24.4584H42.0926L42.4683 22.7413H41.4498L40.3762 27.637H41.3947L41.9306 25.2C41.9996 24.886 42.103 24.6405 42.4356 24.6405C42.7682 24.6405 42.7647 24.886 42.6958 25.2L42.1615 27.637H43.18L43.8004 24.7975C43.9073 24.3081 43.5436 24.0291 43.0594 24.0291M76.1919 22.738L75.1131 27.6387H76.1316L77.2052 22.7413H76.1868M78.9044 25.8381C78.7097 26.7284 78.5598 27.0992 78.2151 27.0992C77.8704 27.0992 77.8704 26.7284 78.0583 25.8381C78.2134 25.1315 78.3133 24.6421 78.7476 24.6421C79.1819 24.6421 79.0509 25.1299 78.8958 25.8364M79.5938 22.7397L79.2215 24.4367H79.206C79.063 24.136 78.8338 24.0308 78.465 24.0308C77.431 24.0308 77.2276 25.1299 77.0708 25.8431C76.914 26.5563 76.6262 27.7055 77.6809 27.7055C77.8684 27.7147 78.0552 27.6769 78.2233 27.5959C78.3914 27.5149 78.5352 27.3933 78.6408 27.2428H78.6563L78.5684 27.6353H79.5386L80.6105 22.7397H79.5938Z" fill="white"/>
</svg>
